<svg width="128" height="128" viewBox="0 0 128 128" fill="none" xmlns="http://www.w3.org/2000/svg">
  <defs>
    <linearGradient id="paint0_linear" x1="10" y1="10" x2="118" y2="118" gradientUnits="userSpaceOnUse">
      <stop offset="0%" stop-color="#6366f1"/>
      <stop offset="100%" stop-color="#a855f7"/>
    </linearGradient>
    <filter id="shadow" x="-20%" y="-20%" width="140%" height="140%">
      <blur stdDeviation="2"/>
    </filter>
  </defs>
  
  <!-- Outer Glow/Shadow for visibility on dark toolbars -->
  <path d="M34 10C29.5817 10 26 13.5817 26 18V114L64 94L102 114V18C102 13.5817 98.4183 10 94 10H34Z" fill="white" fill-opacity="0.1" filter="url(#shadow)"/>
  
  <!-- Main Bookmark Shape -->
  <path d="M34 10C29.5817 10 26 13.5817 26 18V114L64 94L102 114V18C102 13.5817 98.4183 10 94 10H34Z" fill="url(#paint0_linear)"/>
  
  <!-- Customization 'Sparkle' or 'Edit' Symbol -->
  <path d="M78 30L82 42L94 46L82 50L78 62L74 50L62 46L74 42L78 30Z" fill="white" fill-opacity="0.9">
    <animate attributeName="opacity" values="0.7;1;0.7" dur="2s" repeatCount="indefinite" />
  </path>
  
  <path d="M98 58L100 64L106 66L100 68L98 74L96 68L90 66L96 64L98 58Z" fill="white" fill-opacity="0.6"/>
</svg>
